<svg id="Layer_1" data-name="Layer 1" xmlns="http://www.w3.org/2000/svg" viewBox="0 0 484.707 353.943"><defs><style>.cls-1{fill:#fff;}</style></defs><path class="cls-1" d="M253.571,180.127V318.665q0,36.6-6.9,59.272-6.9,23.029-27.6,40.168t-49.04,20.888v-3.035q24.8-11.427,40.463-27.315,15.474-15.531,21.816-34.277,6.155-18.566,6.154-47.845V219.939q0-18.921-5.035-27.136-5.411-8.209-19.392-11.069v-3.749Q240.516,179.771,253.571,180.127Zm54.075-2.142V181.2q-14.544,2.5-19.765,10.532-5.223,8.216-5.221,25.53V316.7q0,24.637,2.8,34.635a36.2,36.2,0,0,0,9.136,16.96q-13.053,0-20.138,3.392Q267,375.257,256,387.755a77.326,77.326,0,0,0,8.95-24.279q2.423-12.675,2.425-42.847v-140.5Q282.472,179.771,307.646,177.985Z" transform="translate(-77.412 -177.985)"/><path class="cls-1" d="M323.85,310.173q-13.641,30.888-13.639,78.2,0,11.071,1.566,31.6a155.909,155.909,0,0,0,9.614,41.954Q299.7,434.787,299.7,388.011q0-28.74,7.266-48.381Q314.123,320.349,323.85,310.173Zm73.224,73.554v90.335q-17.773,11.607-30.631,11.6-21.691,0-34.992-22.852-6.594-11.6-9.892-29.278a225.916,225.916,0,0,1-3.3-41.061q0-102.117,53.549-102.119,19.675,0,38.121,10.534,0,16.6.336,25.529.333,7.679.336,18.746h-2.237q-2.683-19.281-12.633-30.35-10.175-11.067-24.259-11.069-43.489,0-43.487,83.373,0,84.621,37,84.622,14.757,0,20.9-11.247,2.012-5.892,2.011-21.78v-24.1q0-25.884-11.849-29.814v-3.214q4.134.36,11.515,1.072Q393.274,383.371,397.074,383.727Zm8.272,86.05v-86.05q5.367-.355,9.838-1.071a84.585,84.585,0,0,1,9.5-1.072V384.8q-10.176,6.607-10.174,34.992v45.346a28.306,28.306,0,0,0-4.36,2.142,17.721,17.721,0,0,0-2.908,1.428A15.624,15.624,0,0,1,405.346,469.777Z" transform="translate(-77.412 -177.985)"/><path class="cls-1" d="M77.412,498.856h23.909v3.5H82.691v10.177H98.406v3.5H82.691v11.808h19.262v3.5H77.412Z" transform="translate(-77.412 -177.985)"/><path class="cls-1" d="M110.718,498.856h5.452l15.013,20.418L135.66,526h.253c-.266-3.275-.671-6.936-.671-10.333V498.856h5.012v32.478H134.8L119.79,510.9l-4.477-6.706h-.253c.265,3.287.671,6.749.671,10.146v17h-5.013Z" transform="translate(-77.412 -177.985)"/><path class="cls-1" d="M149.2,515.124c0-10.476,8.042-16.861,19.039-16.861a18.346,18.346,0,0,1,11.961,4.006l-2.892,2.69a13.33,13.33,0,0,0-8.93-3.063c-8.357,0-13.727,5.028-13.727,13.119,0,8.163,4.931,13.28,13.78,13.28,2.975,0,5.837-.7,7.474-1.908v-8.456h-8.783v-3.425h13.6v13.65c-2.668,2.178-7.211,3.772-12.786,3.772C156.989,531.928,149.2,525.672,149.2,515.124Z" transform="translate(-77.412 -177.985)"/><path class="cls-1" d="M190.6,498.856h5.278v32.478H190.6Z" transform="translate(-77.412 -177.985)"/><path class="cls-1" d="M207.224,498.856h5.451l15.013,20.418L232.166,526h.252c-.266-3.275-.671-6.936-.671-10.333V498.856h5.013v32.478h-5.452L216.3,510.9l-4.477-6.706h-.253c.266,3.287.671,6.749.671,10.146v17h-5.012Z" transform="translate(-77.412 -177.985)"/><path class="cls-1" d="M248.114,498.856h23.908v3.5H253.393v10.177h15.715v3.5H253.393v11.808h19.261v3.5h-24.54Z" transform="translate(-77.412 -177.985)"/><path class="cls-1" d="M281.42,498.856h12.991c8.449,0,14.516,2.375,14.516,9.141,0,6.487-6.067,9.609-14.516,9.609H286.7v13.728H281.42Zm12.232,15.4c6.455,0,10.009-2.047,10.009-6.257,0-4.272-3.554-5.788-10.009-5.788H286.7v12.045Zm-.281,2.221,4.136-2.139,12.656,17H304.18Z" transform="translate(-77.412 -177.985)"/><path class="cls-1" d="M317.38,498.856h5.278v32.478H317.38Z" transform="translate(-77.412 -177.985)"/><path class="cls-1" d="M334,498.856h5.451l15.013,20.418L358.943,526h.252c-.265-3.275-.671-6.936-.671-10.333V498.856h5.013v32.478h-5.451L343.072,510.9l-4.477-6.706h-.253c.266,3.287.672,6.749.672,10.146v17H334Z" transform="translate(-77.412 -177.985)"/><path class="cls-1" d="M372.482,515.124c0-10.476,8.043-16.861,19.04-16.861a18.344,18.344,0,0,1,11.961,4.006l-2.892,2.69a13.331,13.331,0,0,0-8.929-3.063c-8.358,0-13.727,5.028-13.727,13.119,0,8.163,4.93,13.28,13.78,13.28,2.974,0,5.836-.7,7.473-1.908v-8.456h-8.783v-3.425H404v13.65c-2.668,2.178-7.211,3.772-12.786,3.772C380.272,531.928,372.482,525.672,372.482,515.124Z" transform="translate(-77.412 -177.985)"/><path class="cls-1" d="M410.878,527.106l3.158-2.836a18.488,18.488,0,0,0,11.444,4.025c5.444,0,8.671-2.124,8.671-5.279,0-3.317-3-4.374-6.919-5.713l-5.959-2.058c-3.864-1.292-8.4-3.586-8.4-8.362,0-4.962,5.521-8.62,13.058-8.62a19.694,19.694,0,0,1,12.213,4.023l-2.8,2.655a15.315,15.315,0,0,0-9.414-3.045c-4.652,0-7.734,1.836-7.734,4.742,0,3.129,3.617,4.3,6.866,5.374l5.913,2c4.8,1.614,8.545,3.853,8.545,8.682,0,5.131-5.415,9.23-14.135,9.23A22.832,22.832,0,0,1,410.878,527.106Z" transform="translate(-77.412 -177.985)"/><path class="cls-1" d="M460.274,498.856h5.279v28.98h18.1v3.5H460.274Z" transform="translate(-77.412 -177.985)"/><path class="cls-1" d="M492.041,502.354H479.493v-3.5h30.375v3.5H497.319v28.98h-5.278Z" transform="translate(-77.412 -177.985)"/><path class="cls-1" d="M517.281,498.856h10.377c12.754,0,19.592,5.8,19.592,16.123s-6.838,16.355-19.359,16.355h-10.61Zm9.986,29.089c9.695,0,14.532-4.757,14.532-12.966s-4.837-12.734-14.532-12.734H522.56v25.7Z" transform="translate(-77.412 -177.985)"/><path class="cls-1" d="M554.591,528.846c0-1.869,1.7-3.145,3.763-3.145s3.765,1.276,3.765,3.145c0,1.806-1.7,3.082-3.765,3.082S554.591,530.652,554.591,528.846Z" transform="translate(-77.412 -177.985)"/><path class="cls-1" d="M323.85,310.173q-13.641,30.888-13.639,78.2,0,11.071,1.566,31.6a155.909,155.909,0,0,0,9.614,41.954Q299.7,434.787,299.7,388.011q0-28.74,7.266-48.381Q314.123,320.349,323.85,310.173Zm73.224,73.554v90.335q-17.773,11.607-30.631,11.6-21.691,0-34.992-22.852-6.594-11.6-9.892-29.278a225.916,225.916,0,0,1-3.3-41.061q0-102.117,53.549-102.119,19.675,0,38.121,10.534,0,16.6.336,25.529.333,7.679.336,18.746h-2.237q-2.683-19.281-12.633-30.35-10.175-11.067-24.259-11.069-43.489,0-43.487,83.373,0,84.621,37,84.622,14.757,0,20.9-11.247,2.012-5.892,2.011-21.78v-24.1q0-25.884-11.849-29.814v-3.214q4.134.36,11.515,1.072Q393.274,383.371,397.074,383.727Zm8.272,86.05v-86.05q5.367-.355,9.838-1.071a84.585,84.585,0,0,1,9.5-1.072V384.8q-10.176,6.607-10.174,34.992v45.346a28.306,28.306,0,0,0-4.36,2.142,17.721,17.721,0,0,0-2.908,1.428A15.624,15.624,0,0,1,405.346,469.777Z" transform="translate(-77.412 -177.985)"/><path class="cls-1" d="M77.412,498.856h23.909v3.5H82.691v10.177H98.406v3.5H82.691v11.808h19.262v3.5H77.412Z" transform="translate(-77.412 -177.985)"/><path class="cls-1" d="M110.718,498.856h5.452l15.013,20.418L135.66,526h.253c-.266-3.275-.671-6.936-.671-10.333V498.856h5.012v32.478H134.8L119.79,510.9l-4.477-6.706h-.253c.265,3.287.671,6.749.671,10.146v17h-5.013Z" transform="translate(-77.412 -177.985)"/><path class="cls-1" d="M149.2,515.124c0-10.476,8.042-16.861,19.039-16.861a18.346,18.346,0,0,1,11.961,4.006l-2.892,2.69a13.33,13.33,0,0,0-8.93-3.063c-8.357,0-13.727,5.028-13.727,13.119,0,8.163,4.931,13.28,13.78,13.28,2.975,0,5.837-.7,7.474-1.908v-8.456h-8.783v-3.425h13.6v13.65c-2.668,2.178-7.211,3.772-12.786,3.772C156.989,531.928,149.2,525.672,149.2,515.124Z" transform="translate(-77.412 -177.985)"/><path class="cls-1" d="M190.6,498.856h5.278v32.478H190.6Z" transform="translate(-77.412 -177.985)"/><path class="cls-1" d="M207.224,498.856h5.451l15.013,20.418L232.166,526h.252c-.266-3.275-.671-6.936-.671-10.333V498.856h5.013v32.478h-5.452L216.3,510.9l-4.477-6.706h-.253c.266,3.287.671,6.749.671,10.146v17h-5.012Z" transform="translate(-77.412 -177.985)"/><path class="cls-1" d="M248.114,498.856h23.908v3.5H253.393v10.177h15.715v3.5H253.393v11.808h19.261v3.5h-24.54Z" transform="translate(-77.412 -177.985)"/><path class="cls-1" d="M281.42,498.856h12.991c8.449,0,14.516,2.375,14.516,9.141,0,6.487-6.067,9.609-14.516,9.609H286.7v13.728H281.42Zm12.232,15.4c6.455,0,10.009-2.047,10.009-6.257,0-4.272-3.554-5.788-10.009-5.788H286.7v12.045Zm-.281,2.221,4.136-2.139,12.656,17H304.18Z" transform="translate(-77.412 -177.985)"/><path class="cls-1" d="M317.38,498.856h5.278v32.478H317.38Z" transform="translate(-77.412 -177.985)"/><path class="cls-1" d="M334,498.856h5.451l15.013,20.418L358.943,526h.252c-.265-3.275-.671-6.936-.671-10.333V498.856h5.013v32.478h-5.451L343.072,510.9l-4.477-6.706h-.253c.266,3.287.672,6.749.672,10.146v17H334Z" transform="translate(-77.412 -177.985)"/><path class="cls-1" d="M372.482,515.124c0-10.476,8.043-16.861,19.04-16.861a18.344,18.344,0,0,1,11.961,4.006l-2.892,2.69a13.331,13.331,0,0,0-8.929-3.063c-8.358,0-13.727,5.028-13.727,13.119,0,8.163,4.93,13.28,13.78,13.28,2.974,0,5.836-.7,7.473-1.908v-8.456h-8.783v-3.425H404v13.65c-2.668,2.178-7.211,3.772-12.786,3.772C380.272,531.928,372.482,525.672,372.482,515.124Z" transform="translate(-77.412 -177.985)"/><path class="cls-1" d="M410.878,527.106l3.158-2.836a18.488,18.488,0,0,0,11.444,4.025c5.444,0,8.671-2.124,8.671-5.279,0-3.317-3-4.374-6.919-5.713l-5.959-2.058c-3.864-1.292-8.4-3.586-8.4-8.362,0-4.962,5.521-8.62,13.058-8.62a19.694,19.694,0,0,1,12.213,4.023l-2.8,2.655a15.315,15.315,0,0,0-9.414-3.045c-4.652,0-7.734,1.836-7.734,4.742,0,3.129,3.617,4.3,6.866,5.374l5.913,2c4.8,1.614,8.545,3.853,8.545,8.682,0,5.131-5.415,9.23-14.135,9.23A22.832,22.832,0,0,1,410.878,527.106Z" transform="translate(-77.412 -177.985)"/><path class="cls-1" d="M460.274,498.856h5.279v28.98h18.1v3.5H460.274Z" transform="translate(-77.412 -177.985)"/><path class="cls-1" d="M492.041,502.354H479.493v-3.5h30.375v3.5H497.319v28.98h-5.278Z" transform="translate(-77.412 -177.985)"/><path class="cls-1" d="M517.281,498.856h10.377c12.754,0,19.592,5.8,19.592,16.123s-6.838,16.355-19.359,16.355h-10.61Zm9.986,29.089c9.695,0,14.532-4.757,14.532-12.966s-4.837-12.734-14.532-12.734H522.56v25.7Z" transform="translate(-77.412 -177.985)"/><path class="cls-1" d="M554.591,528.846c0-1.869,1.7-3.145,3.763-3.145s3.765,1.276,3.765,3.145c0,1.806-1.7,3.082-3.765,3.082S554.591,530.652,554.591,528.846Z" transform="translate(-77.412 -177.985)"/></svg>